<svg width="55" height="36" viewBox="0 0 55 36" fill="none" xmlns="http://www.w3.org/2000/svg">
<g clip-path="url(#clip0_100_367)">
<g clip-path="url(#clip1_100_367)">
<path d="M18.5343 32.209C18.1448 32.209 17.8291 32.5184 17.8291 32.9002V35.8556C17.8291 36.2374 18.1448 36.5468 18.5343 36.5468C18.9237 36.5468 19.2395 36.2374 19.2395 35.8556V32.9002C19.2395 32.5184 18.9237 32.209 18.5343 32.209Z" fill="#333D47"/>
<path d="M33.6086 32.209C33.2191 32.209 32.9033 32.5184 32.9033 32.9002V35.8556C32.9033 36.2374 33.2191 36.5468 33.6086 36.5468C33.9981 36.5468 34.3138 36.2374 34.3138 35.8556V32.9002C34.3138 32.5184 33.9981 32.209 33.6086 32.209Z" fill="#333D47"/>
<path d="M5.71891 30.73C5.32943 30.73 5.01367 31.0395 5.01367 31.4213V35.8543C5.01367 36.2362 5.32943 36.5456 5.71891 36.5456C6.1084 36.5456 6.42415 36.2362 6.42415 35.8543V31.4213C6.42415 31.0395 6.10849 30.73 5.71891 30.73Z" fill="#333D47"/>
<path d="M48.5028 28.1487L45.6468 26.7492C45.6303 26.7411 45.6199 26.7247 45.6199 26.7066L45.6201 25.2996C46.7924 24.5084 47.6223 23.2574 47.8299 21.7893C48.3572 20.8961 48.6351 19.8872 48.6351 18.8614C48.6351 16.9484 47.6953 15.2467 46.2449 14.1759C46.3299 13.8983 46.3739 13.6121 46.3739 13.3201C46.3739 11.5129 44.7048 10.0427 42.6535 10.0427C40.6022 10.0427 38.9333 11.5129 38.9333 13.3201C38.9333 13.6124 38.9767 13.8989 39.0617 14.1762C38.1969 14.8147 37.515 15.6782 37.1044 16.6764C36.9297 14.9925 37.2791 18.9952 37.1044 16.6764C37.0433 17.4887 40.0597 25.2996 33.7298 26.1512C33.7298 26.1512 34.9719 27.5382 36.9507 28.7656C36.9507 28.7656 38.1066 29.0595 38.6993 28.7656L39.7908 28.2307L40.61 28.9939C41.183 29.5278 41.9182 29.7945 42.6536 29.7945C43.3888 29.7945 44.1243 29.5276 44.6971 28.9939L45.5164 28.2309L47.8721 29.3852C48.4026 29.6453 48.7322 30.1681 48.7322 30.7496V35.8546C48.7322 36.2364 49.048 36.546 49.4375 36.546C49.8269 36.546 50.1427 36.2364 50.1427 35.8546V30.7496C50.1426 29.6412 49.5142 28.6445 48.5028 28.1487ZM42.6534 11.4251C43.927 11.4251 44.9633 12.2752 44.9633 13.3199C44.9633 13.3637 44.9596 13.4072 44.9561 13.4505C44.2469 13.1593 43.4691 12.998 42.6534 12.998C41.8379 12.998 41.0602 13.1593 40.3511 13.4504C40.3475 13.407 40.3437 13.3637 40.3437 13.3199C40.3437 12.2752 41.3799 11.4251 42.6534 11.4251ZM39.6869 26.7065C39.6869 26.7247 39.6767 26.741 39.6601 26.7491L37.4505 27.832C37.4244 27.82 34.824 27.2454 33.7298 26.1512C33.7033 26.1397 33.7033 26.1397 33.7298 26.1512C33.7298 26.1512 38.0871 24.0248 37.9903 23.4639C37.985 23.4332 37.9793 23.3995 37.9737 23.3664C38.3703 24.1482 38.9634 24.8113 39.6869 25.2996V26.7065ZM43.7253 27.9919C43.1242 28.5519 42.1826 28.5518 41.5814 27.9919L40.926 27.3813C41.0365 27.1781 41.0974 26.9477 41.0974 26.7065V25.9709C41.5899 26.1207 42.1123 26.2022 42.6533 26.2022C43.1943 26.2022 43.7169 26.1207 44.2094 25.9709L44.2092 26.7063C44.2092 26.9477 44.27 27.1781 44.3806 27.3814L43.7253 27.9919ZM42.6534 24.8195C40.7008 24.8195 39.0699 23.3863 38.8599 21.4857C38.8487 21.3838 38.8145 21.2858 38.7597 21.1984C38.3165 20.4907 38.0823 19.6826 38.0823 18.8612C38.0823 16.3907 40.1328 14.3807 42.6534 14.3807C45.174 14.3807 47.2246 16.3907 47.2246 18.8613C47.2246 19.3376 47.1454 19.8093 46.9928 20.2596C44.9903 18.2655 41.4675 17.484 41.2977 17.4474C41.0891 17.4023 40.8707 17.4524 40.7042 17.5836C40.5377 17.7148 40.4407 17.9129 40.4407 18.1224C40.4407 18.1268 40.4086 18.6064 39.8935 19.1113C39.6181 19.3812 39.6181 19.8189 39.8935 20.0888C40.1689 20.3588 40.6155 20.3588 40.8908 20.0888C41.2874 19.7001 41.5205 19.3054 41.6571 18.9722C42.8439 19.3178 45.3068 20.1905 46.4122 21.7223C46.0985 23.5038 44.524 24.8195 42.6534 24.8195Z" fill="#FFA300"/>
<path d="M38.7011 28.7649L37.1062 16.6757C37.0212 16.3983 37.1062 16.9682 37.1062 16.6757C36.9314 14.9919 36.7494 13.0013 36.5748 10.6825C36.3443 7.62297 35.2218 5.03926 33.3286 3.21078C31.4497 1.39613 28.9405 0.437012 26.0723 0.437012C23.2039 0.437012 20.6947 1.39613 18.816 3.21068C16.9228 5.03926 15.8002 7.62297 15.5699 10.6824C15.5087 11.4947 15.4465 12.2646 15.3843 12.9974H8.73543C6.2684 12.9974 4.26128 14.9647 4.26128 17.3829V17.4242C4.26128 17.9873 4.39706 18.5513 4.65405 19.055L5.01504 19.7628V20.8914C5.01504 22.6801 5.91427 24.2851 7.27633 25.2509V26.2493C7.27633 26.3773 7.1886 26.4912 7.06307 26.5264L4.15155 27.3418C2.88475 27.6966 2 28.8462 2 30.1376V35.8541C2 36.2359 2.31576 36.5454 2.70524 36.5454C3.09472 36.5454 3.41048 36.2359 3.41048 35.8541V30.1376C3.41048 29.4602 3.87463 28.8572 4.53906 28.671L7.45066 27.8557C7.5557 27.8262 7.65546 27.7863 7.75044 27.7389L9.53771 29.4908V35.8541C9.53771 36.2359 9.85347 36.5454 10.2429 36.5454C10.6324 36.5454 10.9482 36.2359 10.9482 35.8541V29.4908L12.748 27.7266C12.9886 27.8423 13.2282 27.9096 13.4038 27.9588L14.1187 28.1591C13.1499 28.8343 12.5528 29.9356 12.5528 31.1298V35.854C12.5528 36.2358 12.8686 36.5452 13.2581 36.5452C13.6476 36.5452 13.9634 36.2358 13.9634 35.854V31.1298C13.9634 30.2338 14.5037 29.4208 15.3401 29.0588L19.3722 27.3132C20.6357 29.7934 23.2176 31.3734 26.0723 31.3734C28.9376 31.3734 31.511 29.7969 32.7737 27.3137L36.8046 29.0588C37.6409 29.4208 38.1813 30.2338 38.1813 31.1298V35.854C38.1813 36.2358 38.4971 36.5452 38.8866 36.5452C39.276 36.5452 39.5918 36.2358 39.5918 35.854V31.1298C39.5918 30.2456 39.2639 29.4126 38.7011 28.7649ZM10.243 28.2269L8.63603 26.6518C8.66923 26.522 8.687 26.3869 8.687 26.2492V25.9576C9.13064 26.1003 9.59854 26.185 10.0827 26.1993C10.137 26.2009 10.191 26.2016 10.245 26.2016C10.7799 26.2016 11.302 26.1224 11.7989 25.9713V26.2489C11.7989 26.3988 11.8146 26.5348 11.8425 26.6592L10.243 28.2269ZM10.125 24.8171C8.0851 24.7573 6.42552 22.9961 6.42552 20.8914V19.5995C6.42552 19.4923 6.40005 19.3864 6.35105 19.2904L5.9156 18.4367C5.75612 18.1239 5.67176 17.7739 5.67176 17.4242V17.3829C5.67176 15.7272 7.04614 14.38 8.73543 14.38H14.8142V17.2496C14.8142 17.7134 14.7024 18.1778 14.4908 18.5926L14.1348 19.2903C14.0858 19.3864 14.0604 19.4922 14.0604 19.5994V21.0771C14.0604 22.0978 13.6487 23.0516 12.9011 23.7626C12.154 24.4733 11.1675 24.848 10.125 24.8171ZM16.0192 27.2534L13.7914 26.6295C13.2093 26.4665 13.2094 26.4029 13.2094 26.249L13.2096 25.2967C13.4465 25.1358 13.6723 24.9558 13.8836 24.7548C14.0257 24.6196 14.1581 24.4773 14.2823 24.3298C14.3956 24.5551 14.5692 24.7519 14.7938 24.8943C15.359 25.2531 16.4259 25.8491 17.9947 26.3981L16.0192 27.2534ZM26.0723 29.9909C23.7776 29.9909 21.6995 28.7337 20.6632 26.7543L21.6898 26.3099C22.4909 25.963 23.0085 25.1843 23.0085 24.3259V22.6672C23.9561 23.0403 24.9901 23.2461 26.0723 23.2461C27.1543 23.2461 28.1882 23.0403 29.1359 22.6672V24.3259C29.1359 25.1843 29.6536 25.9631 30.4547 26.3099L31.4811 26.7542C30.4454 28.7358 28.3753 29.9909 26.0723 29.9909ZM32.1875 25.5487L31.0245 25.0451C30.7341 24.9194 30.5463 24.637 30.5463 24.3258V21.9492C32.8127 20.5079 34.3153 18.0059 34.3153 15.1664V13.8702C34.3153 13.0277 33.9498 12.2331 33.3127 11.6899C31.8957 10.482 28.6882 8.37397 23.1274 7.82887C22.7408 7.7909 22.3941 8.06796 22.3554 8.44798C22.3167 8.8279 22.5994 9.16663 22.9871 9.2046C28.1592 9.71154 31.0966 11.633 32.3872 12.7332C32.7161 13.0137 32.9047 13.4282 32.9047 13.8702V15.1664C32.9047 18.8592 29.8397 21.8635 26.0723 21.8635C22.305 21.8635 19.2399 18.8592 19.2399 15.1664V14.5881C19.2399 14.3224 19.3901 14.0791 19.6417 13.9371C20.5235 13.4394 21.6863 12.5176 22.2187 10.9519C22.3419 10.5897 22.1423 10.1982 21.7727 10.0775C21.4033 9.95672 21.0037 10.1525 20.8806 10.5147C20.4883 11.6684 19.6077 12.361 18.9379 12.7389C18.2541 13.1248 17.8293 13.8334 17.8293 14.5882V15.1664C17.8293 18.0062 19.3317 20.508 21.5982 21.9493V24.3259C21.5982 24.6371 21.4105 24.9194 21.1201 25.0452L19.9569 25.5488C17.6855 24.9531 16.2301 24.1588 15.5602 23.7338C15.5469 23.7254 15.5394 23.7157 15.5432 23.6939C15.7891 22.2685 16.4213 18.1573 16.9766 10.7842C17.1814 8.06382 18.1598 5.78537 19.806 4.19544C21.4154 2.64117 23.5822 1.81957 26.0723 1.81957C28.5623 1.81957 30.729 2.64117 32.3384 4.19544C33.9846 5.78537 34.963 8.06373 35.168 10.7841C35.7232 18.1569 36.3553 22.2684 36.6014 23.6938C36.6051 23.7157 36.5976 23.7254 36.5842 23.7338C35.9134 24.1594 34.458 24.9532 32.1875 25.5487ZM37.4523 27.8314C37.4262 27.8193 37.4789 27.8428 37.4523 27.8314L34.1499 26.3983C35.718 25.8496 36.7846 25.2538 37.3507 24.8944C37.837 24.5858 38.0888 24.0241 37.9921 23.4632C37.9868 23.4326 37.9811 23.3989 37.9755 23.3657L38.7011 28.7649L37.4523 27.8314Z" fill="#0977B2"/>
<path d="M48.5046 28.148L45.6486 26.7485C45.6321 26.7404 45.6217 26.724 45.6217 26.706L45.6219 25.299C46.7942 24.5077 47.6241 23.2568 47.8317 21.7887C48.359 20.8955 48.6369 19.8865 48.6369 18.8607C48.6369 16.9477 47.6971 15.2461 46.2467 14.1753C44.6736 13.0202 42.6552 12.9924 42.6552 12.9924C42.6552 12.9924 40.2968 13.0202 39.0635 14.1755C38.9785 13.8982 39.0635 14.468 39.0635 14.1755C38.1987 14.8141 37.5168 15.6775 37.1062 16.6757C36.9314 14.9919 36.7494 13.0013 36.5748 10.6825C36.3443 7.62297 35.2218 5.03926 33.3286 3.21078C31.4497 1.39613 28.9405 0.437012 26.0723 0.437012C23.2039 0.437012 20.6947 1.39613 18.816 3.21068C16.9228 5.03926 15.8002 7.62297 15.5699 10.6824C15.5087 11.4947 15.4465 12.2646 15.3843 12.9974H8.73543C6.2684 12.9974 4.26128 14.9647 4.26128 17.3829V17.4242C4.26128 17.9873 4.39706 18.5513 4.65405 19.055L5.01504 19.7628V20.8914C5.01504 22.6801 5.91427 24.2851 7.27633 25.2509V26.2493C7.27633 26.3773 7.1886 26.4912 7.06306 26.5264L4.15155 27.3418C2.88475 27.6966 2 28.8462 2 30.1376V35.8541C2 36.2359 2.31576 36.5454 2.70524 36.5454C3.09472 36.5454 3.41048 36.2359 3.41048 35.8541V30.1376C3.41048 29.4602 3.87463 28.8572 4.53905 28.671L7.45066 27.8557C7.5557 27.8262 7.65546 27.7863 7.75044 27.7389L9.5377 29.4908V35.8541C9.5377 36.2359 9.85347 36.5454 10.2429 36.5454C10.6324 36.5454 10.9482 36.2359 10.9482 35.8541V29.4908L12.748 27.7266C12.9886 27.8423 13.2282 27.9096 13.4038 27.9588L14.1187 28.1591C13.1499 28.8343 12.5528 29.9356 12.5528 31.1298V35.854C12.5528 36.2358 12.8686 36.5452 13.2581 36.5452C13.6476 36.5452 13.9634 36.2358 13.9634 35.854V31.1298C13.9634 30.2338 14.5037 29.4208 15.3401 29.0588L19.3722 27.3132C20.6357 29.7934 23.2176 31.3734 26.0723 31.3734C28.9376 31.3734 31.511 29.7969 32.7737 27.3137L36.8046 29.0588C37.6408 29.4208 38.1813 30.2338 38.1813 31.1298V35.854C38.1813 36.2358 38.4971 36.5452 38.8866 36.5452C39.276 36.5452 39.5918 36.2358 39.5918 35.854V31.1298C39.5918 30.2456 39.2639 29.4126 38.7011 28.7649L39.7926 28.2301L40.6118 28.9933C41.1848 29.5271 41.92 29.7938 42.6554 29.7938C43.3906 29.7938 44.1261 29.5269 44.6989 28.9933L45.5182 28.2302L47.8739 29.3846C48.4044 29.6447 48.734 30.1675 48.734 30.7489V35.854C48.734 36.2358 49.0498 36.5453 49.4393 36.5453C49.8287 36.5453 50.1445 36.2358 50.1445 35.854V30.7489C50.1444 29.6405 49.516 28.6438 48.5046 28.148ZM10.243 28.2269L8.63603 26.6518C8.66923 26.522 8.687 26.3869 8.687 26.2492V25.9576C9.13064 26.1003 9.59854 26.185 10.0827 26.1993C10.137 26.2009 10.1909 26.2016 10.245 26.2016C10.7799 26.2016 11.302 26.1224 11.7989 25.9713V26.2489C11.7989 26.3988 11.8146 26.5348 11.8425 26.6592L10.243 28.2269ZM10.125 24.8171C8.0851 24.7573 6.42552 22.9961 6.42552 20.8914V19.5995C6.42552 19.4923 6.40005 19.3864 6.35105 19.2904L5.91559 18.4367C5.75612 18.1239 5.67176 17.7739 5.67176 17.4242V17.3829C5.67176 15.7272 7.04614 14.38 8.73543 14.38H14.8142V17.2496C14.8142 17.7134 14.7024 18.1778 14.4908 18.5926L14.1348 19.2903C14.0858 19.3864 14.0604 19.4922 14.0604 19.5994V21.0771C14.0604 22.0978 13.6487 23.0516 12.9011 23.7626C12.154 24.4733 11.1675 24.848 10.125 24.8171ZM16.0192 27.2534L13.7914 26.6295C13.2093 26.4665 13.2094 26.4029 13.2094 26.249L13.2096 25.2967C13.4465 25.1358 13.6723 24.9558 13.8836 24.7548C14.0257 24.6196 14.1581 24.4773 14.2823 24.3298C14.3956 24.5551 14.5692 24.7519 14.7938 24.8943C15.359 25.2531 16.4259 25.8491 17.9947 26.3981L16.0192 27.2534ZM26.0723 29.9909C23.7776 29.9909 21.6995 28.7337 20.6632 26.7543L21.6898 26.3099C22.4909 25.963 23.0085 25.1843 23.0085 24.3259V22.6672C23.9561 23.0403 24.9901 23.2461 26.0723 23.2461C27.1543 23.2461 28.1882 23.0403 29.1359 22.6672V24.3259C29.1359 25.1843 29.6536 25.9631 30.4547 26.3099L31.4811 26.7542C30.4454 28.7358 28.3753 29.9909 26.0723 29.9909ZM32.1875 25.5487L31.0245 25.0451C30.7341 24.9194 30.5463 24.637 30.5463 24.3258V21.9492C32.8127 20.5079 34.3153 18.0059 34.3153 15.1664V13.8702C34.3153 13.0277 33.9498 12.2331 33.3127 11.6899C31.8957 10.482 28.6882 8.37397 23.1273 7.82887C22.7408 7.7909 22.3941 8.06796 22.3554 8.44798C22.3167 8.8279 22.5994 9.16663 22.9871 9.2046C28.1592 9.71154 31.0966 11.633 32.3872 12.7332C32.7161 13.0137 32.9047 13.4282 32.9047 13.8702V15.1664C32.9047 18.8592 29.8397 21.8635 26.0723 21.8635C22.305 21.8635 19.2399 18.8592 19.2399 15.1664V14.5881C19.2399 14.3224 19.3901 14.0791 19.6417 13.9371C20.5235 13.4394 21.6863 12.5176 22.2187 10.9519C22.3419 10.5897 22.1422 10.1982 21.7727 10.0775C21.4033 9.95672 21.0037 10.1525 20.8806 10.5147C20.4883 11.6684 19.6077 12.361 18.9379 12.7389C18.2541 13.1248 17.8293 13.8334 17.8293 14.5882V15.1664C17.8293 18.0062 19.3317 20.508 21.5982 21.9493V24.3259C21.5982 24.6371 21.4105 24.9194 21.1201 25.0452L19.9569 25.5488C17.6855 24.9531 16.2301 24.1588 15.5602 23.7338C15.5469 23.7254 15.5394 23.7157 15.5432 23.6939C15.7891 22.2685 16.4213 18.1573 16.9766 10.7842C17.1814 8.06382 18.1598 5.78537 19.806 4.19544C21.4154 2.64117 23.5822 1.81957 26.0723 1.81957C28.5623 1.81957 30.729 2.64117 32.3384 4.19544C33.9846 5.78537 34.963 8.06373 35.168 10.7841C35.7232 18.1569 36.3553 22.2684 36.6014 23.6938C36.6051 23.7157 36.5976 23.7254 36.5842 23.7338C35.9134 24.1594 34.4579 24.9532 32.1875 25.5487ZM39.6887 26.7059C39.6887 26.724 39.6785 26.7403 39.6619 26.7484L37.4523 27.8314C37.4262 27.8193 37.4009 27.8058 37.3744 27.7943L34.1499 26.3983C35.718 25.8496 36.7846 25.2538 37.3507 24.8944C37.837 24.5858 38.0888 24.0241 37.9921 23.4632C37.9868 23.4326 37.9811 23.3989 37.9755 23.3657C38.3721 24.1475 38.9652 24.8106 39.6887 25.299V26.7059ZM43.727 27.9912C43.126 28.5512 42.1844 28.5511 41.5833 27.9912L40.9278 27.3807C41.0383 27.1775 41.0992 26.947 41.0992 26.7059V25.9702C41.5917 26.12 42.1141 26.2016 42.6551 26.2016C43.1961 26.2016 43.7187 26.12 44.2112 25.9702L44.211 26.7057C44.211 26.947 44.2718 27.1775 44.3824 27.3808L43.727 27.9912ZM42.6552 24.8188C40.7026 24.8188 39.0717 23.3857 38.8617 21.485C38.8505 21.3832 38.8163 21.2851 38.7615 21.1977C38.3183 20.4901 38.0841 19.6819 38.0841 18.8605C38.0841 16.39 40.1346 14.38 42.6552 14.38C45.1758 14.38 47.2264 16.39 47.2264 18.8606C47.2264 19.3369 47.1472 19.8086 46.9946 20.259C44.9921 18.2648 41.4693 17.4833 41.2995 17.4467C41.091 17.4016 40.8725 17.4517 40.706 17.5829C40.5395 17.7141 40.4425 17.9123 40.4425 18.1217C40.4425 18.1262 40.4104 18.6058 39.8953 19.1106C39.6199 19.3806 39.6199 19.8182 39.8953 20.0882C40.1707 20.3581 40.6173 20.3581 40.8926 20.0882C41.2892 19.6994 41.5223 19.3047 41.6589 18.9716C42.8457 19.3171 45.3086 20.1898 46.414 21.7216C46.1003 23.5032 44.5258 24.8188 42.6552 24.8188Z" fill="#333D47"/>
<path d="M46.4211 31.6438C46.0316 31.6438 45.7158 31.9532 45.7158 32.335V35.8548C45.7158 36.2366 46.0316 36.546 46.4211 36.546C46.8106 36.546 47.1263 36.2366 47.1263 35.8548V32.335C47.1263 31.9532 46.8106 31.6438 46.4211 31.6438Z" fill="#333D47"/>
</g>
</g>
<defs>
<clipPath id="clip0_100_367">
<rect width="54.0194" height="35.1097" fill="white" transform="translate(0 0.833984)"/>
</clipPath>
<clipPath id="clip1_100_367">
<rect width="48.1445" height="36.1084" fill="white" transform="translate(2 0.437012)"/>
</clipPath>
</defs>
</svg>
