<svg width="30" height="29" viewBox="0 0 30 29" fill="none" xmlns="http://www.w3.org/2000/svg">
<g clip-path="url(#clip0_100_380)">
<path d="M23.5134 7.6035H22.8877V5.77171C22.8877 5.43449 22.6075 5.16113 22.2619 5.16113C21.9164 5.16113 21.6362 5.43449 21.6362 5.77171V7.6035H21.0105C20.6649 7.6035 20.3848 7.87687 20.3848 8.21409V11.8778C20.3848 12.215 20.6649 12.4883 21.0105 12.4883H21.6362V16.7625C21.6362 17.0997 21.9164 17.3731 22.2619 17.3731C22.6075 17.3731 22.8877 17.0997 22.8877 16.7625V12.4883H23.5134C23.859 12.4883 24.1391 12.215 24.1391 11.8778V8.21409C24.1391 7.87687 23.859 7.6035 23.5134 7.6035ZM22.8877 11.2672H21.6361V8.82469H22.8877V11.2672Z" fill="#333D47"/>
<path d="M27.2695 13.7094H26.6438V11.8776C26.6438 11.5404 26.3637 11.267 26.0181 11.267C25.6725 11.267 25.3924 11.5404 25.3924 11.8776V13.7094H24.7666C24.4211 13.7094 24.141 13.9828 24.141 14.32V17.9837C24.141 18.3209 24.4211 18.5943 24.7666 18.5943H25.3924V27.1427H2.881L2.85998 24.0541H3.49148C3.83706 24.0541 4.1172 23.7807 4.1172 23.4435V22.2579H5.36867V23.4588C5.36867 23.796 5.64881 24.0694 5.99439 24.0694H6.62011V25.3109C6.62011 25.6481 6.90024 25.9214 7.24579 25.9214H22.2635C22.609 25.9214 22.8892 25.6481 22.8892 25.3109V20.4261C22.8892 20.0889 22.609 19.8155 22.2635 19.8155C21.9179 19.8155 21.6378 20.0889 21.6378 20.4261V24.7002H7.87151V24.0694H8.49724C8.84281 24.0694 9.12297 23.796 9.12297 23.4588V22.2579H18.509C18.8545 22.2579 19.1347 21.9845 19.1347 21.6473V0.886703C19.1347 0.549485 18.8545 0.276123 18.509 0.276123H-0.26296C-0.608535 0.276123 -0.888672 0.549485 -0.888672 0.886703V21.6473C-0.888672 21.9845 -0.608535 22.2579 -0.26296 22.2579H0.362751V23.4435C0.362751 23.7807 0.642889 24.054 0.988462 24.054H1.60839L1.63363 27.7573C1.63599 28.0929 1.91545 28.3639 2.25939 28.3639H26.018C26.3636 28.3639 26.6437 28.0905 26.6437 27.7533V18.5943H27.2694C27.6149 18.5943 27.8951 18.3209 27.8951 17.9837V14.32C27.8952 13.9828 27.6151 13.7094 27.2695 13.7094ZM7.87167 22.8481H6.62016V22.2579H7.87167V22.8481ZM0.988518 21.0061C0.920501 21.0061 0.85517 21.017 0.79378 21.0367H0.362751V1.49734H17.8834V21.0367H8.635C8.59063 21.027 8.54465 21.0214 8.49732 21.0214H5.99439C5.947 21.0214 5.90107 21.027 5.85677 21.0367H3.68617C3.62483 21.0171 3.55951 21.0061 3.49143 21.0061H0.988518ZM1.61429 22.8329V22.2579H2.86577V22.8329H1.61429ZM26.6437 17.373H25.3923V14.9306H26.6437V17.373Z" fill="#333D47"/>
<path d="M3.50025 16.1521C2.46515 16.1521 1.62305 16.9738 1.62305 17.9839C1.62305 18.994 2.46515 19.8157 3.50025 19.8157C4.53533 19.8157 5.37744 18.994 5.37744 17.9839C5.37744 16.9739 4.53533 16.1521 3.50025 16.1521ZM3.50025 18.5945C3.15523 18.5945 2.87453 18.3206 2.87453 17.984C2.87453 17.6472 3.15523 17.3734 3.50025 17.3734C3.84525 17.3734 4.12596 17.6472 4.12596 17.984C4.12596 18.3206 3.84525 18.5945 3.50025 18.5945Z" fill="#333D47"/>
<path d="M14.7629 16.1521C13.7278 16.1521 12.8857 16.9738 12.8857 17.9839C12.8857 18.994 13.7278 19.8157 14.7629 19.8157C15.798 19.8157 16.6401 18.994 16.6401 17.9839C16.6401 16.9739 15.798 16.1521 14.7629 16.1521ZM14.7629 18.5945C14.4179 18.5945 14.1372 18.3206 14.1372 17.984C14.1372 17.6472 14.4179 17.3734 14.7629 17.3734C15.1079 17.3734 15.3887 17.6472 15.3887 17.984C15.3887 18.3206 15.1079 18.5945 14.7629 18.5945Z" fill="#333D47"/>
<path d="M9.13206 16.1521C8.09697 16.1521 7.25488 16.9738 7.25488 17.9839C7.25488 18.994 8.09697 19.8157 9.13206 19.8157C10.1672 19.8157 11.0092 18.994 11.0092 17.9839C11.0092 16.9739 10.1672 16.1521 9.13206 16.1521ZM9.13206 18.5945C8.78706 18.5945 8.50634 18.3206 8.50634 17.984C8.50634 17.6472 8.78706 17.3734 9.13206 17.3734C9.47707 17.3734 9.75779 17.6472 9.75779 17.984C9.75779 18.3206 9.47707 18.5945 9.13206 18.5945Z" fill="#333D47"/>
<path d="M16.0053 2.71851H2.23899C1.89342 2.71851 1.61328 2.99187 1.61328 3.32909V14.32C1.61328 14.6572 1.89342 14.9306 2.23899 14.9306H16.0053C16.3508 14.9306 16.6309 14.6572 16.6309 14.32V3.32909C16.6309 2.99187 16.3508 2.71851 16.0053 2.71851ZM15.3795 13.7094H2.86477V9.65913C4.26297 7.60485 6.59093 6.38215 9.1221 6.38215C11.6557 6.38215 13.9813 7.60397 15.3795 9.65874V13.7094ZM15.3795 7.72411C13.7499 6.0959 11.5157 5.16094 9.1221 5.16094C6.73063 5.16094 4.49499 6.09656 2.86477 7.72488V3.93972H15.3795L15.3795 7.72411Z" fill="#FFA300"/>
<path d="M16.0053 2.71851H2.23899C1.89342 2.71851 1.61328 2.99187 1.61328 3.32909V14.32C1.61328 14.6572 1.89342 14.9306 2.23899 14.9306H16.0053C16.3508 14.9306 16.6309 14.6572 16.6309 14.32V3.32909C16.6309 2.99187 16.3508 2.71851 16.0053 2.71851ZM15.3795 13.7094H2.86477V3.93972C2.86477 3.93972 6.59096 3.93972 9.12218 3.93972C11.6557 3.93972 15.3795 3.93972 15.3795 3.93972L15.3795 13.7094ZM15.3795 3.93972C15.3795 3.93972 11.5158 3.93972 9.12218 3.93972C6.73066 3.93972 2.86477 3.93972 2.86477 3.93972H9.12218H15.3795Z" fill="#333D47"/>
<path d="M10.3777 9.29456L10.8895 8.08874C11.0218 7.7772 10.8701 7.42002 10.5508 7.29099C10.2317 7.16202 9.86554 7.30991 9.73338 7.62145L9.22191 8.8262C8.94558 8.81169 8.66726 8.85749 8.40397 8.96383C7.94079 9.15116 7.57995 9.50319 7.38806 9.95517C7.19617 10.4072 7.19617 10.9052 7.38806 11.3572C7.57995 11.8093 7.94079 12.1614 8.40397 12.3486C8.6356 12.4423 8.87898 12.489 9.12236 12.489C9.36575 12.489 9.60913 12.4422 9.84068 12.3486C10.3039 12.1614 10.6648 11.8094 10.8567 11.3573C11.1688 10.6217 10.9517 9.79944 10.3777 9.29456ZM9.70044 10.8899C9.56843 11.2009 9.20176 11.349 8.8829 11.2203C8.7285 11.1579 8.60825 11.0405 8.54429 10.8899C8.48024 10.7391 8.48024 10.5732 8.54429 10.4225C8.64399 10.1877 8.87754 10.0456 9.12316 10.0456C9.20288 10.0456 9.28379 10.0606 9.36183 10.0921C9.68053 10.2209 9.83252 10.5789 9.70044 10.8899Z" fill="#FFA300"/>
<path d="M22.7048 18.1628C22.5884 18.0492 22.427 17.9839 22.2624 17.9839C22.0978 17.9839 21.9364 18.0492 21.8201 18.1628C21.7036 18.2763 21.6367 18.4339 21.6367 18.5945C21.6367 18.7551 21.7036 18.9126 21.8201 19.0261C21.9364 19.1397 22.0978 19.205 22.2624 19.205C22.427 19.205 22.5884 19.1397 22.7048 19.0261C22.8212 18.9126 22.8881 18.7551 22.8881 18.5945C22.8881 18.4339 22.8213 18.2763 22.7048 18.1628Z" fill="#333D47"/>
</g>
<defs>
<clipPath id="clip0_100_380">
<rect width="30" height="28.0878" fill="white" transform="translate(0 0.276123)"/>
</clipPath>
</defs>
</svg>
